<svg width="640" height="640" viewBox="0 0 640 640" fill="none" xmlns="http://www.w3.org/2000/svg">
<g clip-path="url(#clip0_1_5)">
<circle cx="320" cy="320" r="320" fill="#181818"/>
<path d="M481.428 132.079C488.853 131.479 496.128 134.329 501.378 139.579C506.629 144.829 509.479 152.104 508.879 159.529C505.878 196.505 495.828 254.18 474.153 309.306C472.803 312.681 470.028 315.231 466.503 316.281L405.828 334.506C402.903 335.406 400.953 338.031 400.953 341.106C400.953 344.931 404.028 348.006 407.853 348.006H436.803C445.803 348.006 451.578 357.606 446.928 365.331C443.928 370.356 440.703 375.231 437.403 380.031C435.903 382.206 433.653 383.781 431.103 384.606L357.827 406.507C354.902 407.407 352.952 410.032 352.952 413.107C352.952 416.932 356.027 420.007 359.852 420.007H371.852C382.802 420.007 387.602 433.057 378.452 439.057C327.452 472.807 275.176 471.532 241.651 462.532C232.126 459.982 223.651 455.107 215.851 449.107L160.95 504.007C154.35 510.607 143.55 510.607 136.95 504.007C130.35 497.407 130.35 486.607 136.95 480.007L196.951 420.007L197.326 420.382C197.851 419.407 198.526 418.507 199.351 417.682L316.952 300.006C323.552 293.405 323.552 282.605 316.952 276.005C310.352 269.405 299.552 269.405 292.952 276.005L192.226 376.656C185.55 383.331 174.225 379.956 173.475 370.506C170.25 330.606 180.45 278.18 227.926 230.705C296.252 162.379 418.578 137.179 481.353 132.079H481.428Z" fill="#DEDEDE"/>
</g>
<defs>
<clipPath id="clip0_1_5">
<rect width="640" height="640" fill="white"/>
</clipPath>
</defs>
</svg>
