<svg width="640" height="640" viewBox="0 0 640 640" fill="none" xmlns="http://www.w3.org/2000/svg">
  <style>
    .bg { fill: #DEDEDE; }
    .fg { fill: #181818; }
    @media (prefers-color-scheme: dark) {
      .bg { fill: #181818; }
      .fg { fill: #DEDEDE; }
    }
  </style>
  <path class="bg" d="M640 320C640 496.731 496.731 640 320 640C143.269 640 0 496.731 0 320C0 143.269 143.269 0 320 0C496.731 0 640 143.269 640 320Z"/>
  <path class="fg" d="M491.723 119.084C499.644 118.444 507.404 121.484 513.004 127.084C518.604 132.684 521.644 140.444 521.004 148.364C517.804 187.805 507.084 249.325 483.963 308.126C482.523 311.726 479.563 314.446 475.803 315.566L411.083 335.006C407.963 335.966 405.883 338.766 405.883 342.046C405.883 346.126 409.163 349.406 413.243 349.406H444.123C453.723 349.406 459.883 359.646 454.923 367.887C451.723 373.247 448.283 378.447 444.763 383.567C443.163 385.887 440.763 387.567 438.043 388.447L359.882 411.807C356.762 412.767 354.682 415.567 354.682 418.847C354.682 422.927 357.962 426.207 362.042 426.207H374.842C386.523 426.207 391.643 440.127 381.882 446.527C327.482 482.528 271.721 481.168 235.961 471.568C225.801 468.847 216.761 463.647 208.441 457.247L149.88 515.808C142.84 522.848 131.32 522.848 124.28 515.808C117.24 508.768 117.24 497.248 124.28 490.208L188.281 426.207L188.681 426.607C189.241 425.567 189.961 424.607 190.841 423.727L316.282 298.206C323.322 291.166 323.322 279.646 316.282 272.606C309.242 265.566 297.722 265.566 290.682 272.606L183.241 379.967C176.121 387.087 164.04 383.487 163.24 373.407C159.8 330.846 170.68 274.926 221.321 224.285C294.202 151.405 424.683 124.524 491.643 119.084H491.723Z"/>
</svg>